<?xml version="1.0" encoding="UTF-8"?><svg id="Layer_2" xmlns="http://www.w3.org/2000/svg" viewBox="0 0 637.5 135.44"><defs><style>.cls-1{opacity:.36;}.cls-1,.cls-2,.cls-3{fill:#df0;}.cls-3{opacity:.18;}.cls-4{fill:#f2f2f2;}</style></defs><g id="Layer_1-2"><g><g><path class="cls-4" d="M175.33,82.85V2.03h12.71c7.37,0,12.76,.48,16.17,1.43,4.84,1.28,8.69,3.66,11.55,7.14,2.86,3.48,4.29,7.58,4.29,12.31,0,3.08-.65,5.87-1.95,8.38-1.3,2.51-3.42,4.86-6.34,7.06,4.91,2.31,8.5,5.19,10.77,8.65,2.27,3.46,3.41,7.55,3.41,12.28s-1.17,8.68-3.52,12.42-5.37,6.53-9.07,8.38c-3.7,1.85-8.82,2.77-15.34,2.77h-22.66Zm15.38-66.15v17.03h3.36c3.75,0,6.54-.79,8.36-2.36,1.82-1.57,2.73-3.72,2.73-6.43,0-2.53-.86-4.53-2.59-6.02-1.73-1.48-4.36-2.23-7.88-2.23h-3.97Zm0,30.77v20.71h3.86c6.39,0,10.7-.81,12.92-2.42,2.22-1.61,3.33-3.96,3.33-7.03,0-3.48-1.3-6.23-3.91-8.24-2.61-2.01-6.94-3.02-13-3.02h-3.2Z"/><path class="cls-4" d="M281.94,23.07h15v59.77h-15v-6.32c-2.93,2.78-5.86,4.79-8.81,6.02-2.95,1.23-6.14,1.84-9.58,1.84-7.72,0-14.4-2.99-20.03-8.98s-8.45-13.43-8.45-22.33,2.73-16.79,8.18-22.69c5.45-5.9,12.07-8.85,19.87-8.85,3.58,0,6.95,.68,10.1,2.03,3.15,1.36,6.05,3.39,8.73,6.1v-6.59Zm-15.77,12.31c-4.64,0-8.49,1.64-11.55,4.92-3.07,3.28-4.6,7.48-4.6,12.61s1.56,9.41,4.68,12.75c3.12,3.33,6.96,5,11.53,5s8.62-1.64,11.72-4.92c3.1-3.28,4.65-7.57,4.65-12.88s-1.55-9.41-4.65-12.64c-3.1-3.22-7.03-4.83-11.77-4.83Z"/><path class="cls-4" d="M347.57,31.42l-9.29,9.28c-3.77-3.74-7.2-5.6-10.27-5.6-1.68,0-3,.36-3.96,1.07-.95,.71-1.43,1.6-1.43,2.66,0,.81,.3,1.55,.91,2.23,.6,.68,2.1,1.6,4.48,2.77l5.49,2.75c5.79,2.86,9.76,5.77,11.92,8.73,2.16,2.97,3.24,6.45,3.24,10.44,0,5.31-1.95,9.74-5.85,13.3-3.9,3.55-9.13,5.33-15.68,5.33-8.72,0-15.68-3.41-20.88-10.22l9.23-10.05c1.76,2.05,3.82,3.71,6.18,4.97,2.36,1.26,4.46,1.9,6.29,1.9,1.98,0,3.57-.48,4.78-1.43,1.21-.95,1.81-2.05,1.81-3.3,0-2.31-2.18-4.56-6.54-6.76l-5.05-2.53c-9.67-4.87-14.5-10.97-14.5-18.29,0-4.73,1.82-8.76,5.47-12.11,3.64-3.35,8.3-5.03,13.98-5.03,3.88,0,7.54,.85,10.96,2.55,3.42,1.7,6.33,4.15,8.71,7.33Z"/><path class="cls-4" d="M419.23,57.3h-48.18c.7,4.25,2.55,7.63,5.58,10.14,3.02,2.51,6.88,3.76,11.56,3.76,5.6,0,10.42-1.96,14.45-5.88l12.64,5.93c-3.15,4.47-6.92,7.77-11.32,9.92-4.39,2.14-9.61,3.21-15.66,3.21-9.38,0-17.01-2.96-22.91-8.87-5.9-5.91-8.85-13.32-8.85-22.22s2.94-16.69,8.82-22.72c5.88-6.02,13.25-9.04,22.11-9.04,9.41,0,17.07,3.01,22.96,9.04,5.9,6.02,8.84,13.98,8.84,23.87l-.05,2.86Zm-15-11.81c-.99-3.33-2.94-6.04-5.86-8.13-2.92-2.09-6.3-3.13-10.15-3.13-4.18,0-7.85,1.17-11.01,3.52-1.98,1.47-3.82,4.05-5.5,7.75h32.52Z"/><path class="cls-4" d="M428.6,0h15V82.85h-15V0Z"/><path class="cls-4" d="M458.95,23.07h15v59.77h-15V23.07Z"/><path class="cls-4" d="M486.45,23.07h15v6.13c3.4-2.87,6.48-4.86,9.24-5.98,2.76-1.12,5.59-1.68,8.48-1.68,5.92,0,10.95,2.07,15.09,6.21,3.47,3.52,5.21,8.72,5.21,15.6v39.5h-14.83v-26.18c0-7.13-.32-11.87-.96-14.21-.64-2.34-1.75-4.12-3.34-5.35-1.59-1.23-3.55-1.84-5.89-1.84-3.03,0-5.64,1.02-7.81,3.05-2.17,2.03-3.68,4.84-4.52,8.42-.44,1.87-.66,5.91-.66,12.13v23.98h-15V23.07Z"/><path class="cls-4" d="M612.73,57.3h-48.18c.7,4.25,2.55,7.63,5.58,10.14,3.02,2.51,6.88,3.76,11.56,3.76,5.6,0,10.42-1.96,14.45-5.88l12.64,5.93c-3.15,4.47-6.92,7.77-11.32,9.92-4.39,2.14-9.61,3.21-15.66,3.21-9.38,0-17.01-2.96-22.91-8.87-5.9-5.91-8.85-13.32-8.85-22.22s2.94-16.69,8.82-22.72c5.88-6.02,13.25-9.04,22.11-9.04,9.41,0,17.07,3.01,22.96,9.04,5.9,6.02,8.84,13.98,8.84,23.87l-.05,2.86Zm-15-11.81c-.99-3.33-2.94-6.04-5.86-8.13-2.92-2.09-6.3-3.13-10.15-3.13-4.18,0-7.85,1.17-11.01,3.52-1.98,1.47-3.82,4.05-5.5,7.75h32.52Z"/><g><g><path class="cls-1" d="M73.37,3.47c-1.54,.99-3.02,2.07-4.42,3.24-1.13-1.09-2.27-2.19-3.4-3.29-.18-.18-.36-.38-.54-.57,1.05-.01,1.76-.09,3.13-.04,1.36,.06,2.72,.27,4.07,.47,.39,.06,.78,.12,1.16,.19Z"/><path class="cls-1" d="M73.01,80.44c-12.31,2.02-23.31-1.14-32.78-9.53-6.81-6.03-10.86-13.67-12.36-22.63-.37-2.16-.45-4.38-.67-6.57,.08-.03,.15-.05,.22-.07,.17,.15,.35,.29,.51,.45,5.32,5.18,10.56,10.45,16,15.51,4.2,3.91,8.97,6.23,14.21,6.97,3.63,6.4,8.74,11.85,14.87,15.87Z"/><path class="cls-1" d="M52.24,42.08c0,5.41,.94,10.61,2.68,15.44-2.66-.95-5.02-2.44-7.15-4.49-6.44-6.21-12.82-12.48-19.24-18.72-.29-.28-.34-.53-.26-.9,2.99-14.16,14.58-26.05,28.64-29.41,.38-.09,.63-.04,.92,.24,2.24,2.2,4.5,4.38,6.76,6.57-7.66,8.19-12.35,19.19-12.35,31.27Z"/></g><g><path class="cls-2" d="M98.68,2.95c1.36,.03,2.72,.18,4.08,.34,8.43,1.02,15.78,4.42,22,10.19,5.24,4.86,8.98,10.71,10.87,17.61,3.69,13.46,1.12,25.68-7.82,36.42-5.42,6.51-12.37,10.76-20.63,12.61-12.76,2.86-24.31,.12-34.37-8.27-6.98-5.82-11.26-13.34-13.03-22.25-.43-2.16-.58-4.37-.86-6.55,.07-.03,.14-.05,.22-.08,.17,.15,.35,.29,.52,.44,5.48,5.02,10.87,10.13,16.46,15.02,6.43,5.63,13.99,7.68,22.41,6.24,11.04-1.89,19.75-10.39,21.75-21.4,1.79-9.81-1.06-18.26-8.33-25.1-5.22-4.91-10.55-9.7-15.83-14.55-.19-.18-.37-.36-.56-.55,1.04-.04,2.08-.15,3.13-.13Z"/><path class="cls-2" d="M95.21,59.1c-6.18,.16-11.18-1.55-15.38-5.36-6.62-6.01-13.19-12.09-19.79-18.13-.3-.27-.36-.53-.29-.9,2.57-14.23,13.8-26.47,27.75-30.25,.37-.1,.62-.06,.92,.21,6.6,6.07,13.3,12.04,19.79,18.23,5.99,5.71,7.98,12.82,5.81,20.77-2.18,7.99-7.62,12.93-15.66,14.94-1.19,.3-2.44,.37-3.15,.48Z"/></g><path class="cls-3" d="M41.95,3.12c-1.88,1.19-3.68,2.51-5.36,3.96-1.37-.98-2.75-1.97-4.12-2.96-.21-.15-.41-.32-.62-.48,1.03-.16,2.05-.39,3.09-.5,1.35-.13,2.72-.14,4.09-.14,.99,0,1.96,.04,2.92,.12Z"/><path class="cls-3" d="M42.5,81.05c-8.74,.9-17.16-1.24-25.15-6.44-7.62-4.97-12.75-11.93-15.56-20.57-.68-2.09-1.09-4.27-1.62-6.4,.07-.04,.14-.07,.21-.11,.18,.13,.38,.25,.56,.38,6.03,4.34,11.99,8.78,18.11,12.99,2.4,1.65,4.89,2.87,7.45,3.66,3.86,6.76,9.37,12.44,16,16.49Z"/><path class="cls-3" d="M20.51,41.91c0,5,.8,9.82,2.29,14.33-.21-.14-.41-.28-.62-.43-7.29-5.2-14.52-10.46-21.79-15.68-.33-.24-.41-.48-.39-.86C.88,24.83,10.59,11.36,24.01,5.97c.36-.14,.61-.13,.94,.11,2.43,1.75,4.86,3.5,7.3,5.24-7.3,8.12-11.74,18.84-11.74,30.59Z"/></g><circle class="cls-4" cx="629.17" cy="76.17" r="8.33"/></g><g><path class="cls-2" d="M489.22,108.2h5.2l6.69,18.88,6.78-18.88h5.19l-9.58,26.58h-4.88l-9.41-26.58Z"/><path class="cls-2" d="M522.33,108.2h5.02v26.58h-5.02v-26.58Z"/><path class="cls-2" d="M552.54,111.81l-3.75,3.31c-1.32-1.83-2.66-2.75-4.02-2.75-.66,0-1.21,.18-1.63,.53-.42,.35-.63,.76-.63,1.2s.15,.87,.45,1.26c.41,.53,1.65,1.67,3.71,3.41,1.93,1.61,3.1,2.63,3.51,3.05,1.03,1.04,1.75,2.03,2.18,2.97,.43,.95,.64,1.98,.64,3.1,0,2.18-.75,3.98-2.26,5.4-1.51,1.42-3.47,2.13-5.9,2.13-1.89,0-3.54-.46-4.95-1.39-1.4-.93-2.61-2.38-3.61-4.37l4.25-2.57c1.28,2.35,2.75,3.52,4.42,3.52,.87,0,1.6-.25,2.19-.76,.59-.51,.89-1.09,.89-1.75,0-.6-.22-1.2-.67-1.81-.45-.6-1.43-1.52-2.95-2.76-2.9-2.36-4.77-4.18-5.61-5.47-.84-1.28-1.27-2.56-1.27-3.84,0-1.84,.7-3.42,2.11-4.74,1.4-1.32,3.14-1.98,5.2-1.98,1.33,0,2.59,.31,3.79,.92,1.2,.61,2.5,1.73,3.9,3.36Z"/><path class="cls-2" d="M563.02,108.2h5.02v26.58h-5.02v-26.58Z"/><path class="cls-2" d="M591.83,107.53c3.76,0,6.99,1.36,9.7,4.08,2.71,2.72,4.06,6.04,4.06,9.95s-1.33,7.16-4,9.85c-2.67,2.69-5.91,4.03-9.72,4.03s-7.3-1.38-9.94-4.14c-2.64-2.76-3.96-6.03-3.96-9.83,0-2.54,.61-4.88,1.84-7.01s2.92-3.82,5.07-5.07c2.15-1.25,4.47-1.87,6.95-1.87Zm-.05,4.95c-2.46,0-4.53,.86-6.2,2.57-1.68,1.71-2.51,3.88-2.51,6.52,0,2.94,1.06,5.26,3.17,6.97,1.64,1.34,3.52,2.01,5.64,2.01,2.4,0,4.44-.87,6.13-2.6,1.69-1.73,2.53-3.87,2.53-6.41s-.85-4.67-2.55-6.42c-1.7-1.75-3.77-2.63-6.2-2.63Z"/><path class="cls-2" d="M615.93,108.2h4.85l11.37,17.49v-17.49h5.06v26.58h-4.87l-11.36-17.43v17.43h-5.06v-26.58Z"/></g></g></g></svg>